<?xml version="1.0" encoding="utf-8"?>
<!-- Generator: Adobe Illustrator 23.1.1, SVG Export Plug-In . SVG Version: 6.00 Build 0)  -->
<svg version="1.1" id="Layer_1" xmlns="http://www.w3.org/2000/svg" xmlns:xlink="http://www.w3.org/1999/xlink" x="0px" y="0px"
	 viewBox="0 0 1000 1000" style="enable-background:new 0 0 1000 1000;" xml:space="preserve">
<style type="text/css">
	.st0{fill:none;stroke:#601B23;stroke-width:6;stroke-linecap:round;stroke-linejoin:round;stroke-miterlimit:10;}
	.st1{fill:#E36535;}
	.st2{fill:#F4A045;}
	.st3{fill:none;}
	.st4{fill:#FFFFFF;}
	.st5{fill:#601B23;}
	.st6{fill:#C11A4D;}
	.st7{fill:#CF264D;}
	.st8{opacity:0.72;fill:#A5143A;}
	.st9{opacity:0.23;fill:#F4A15D;}
	.st10{opacity:0.32;fill:#F4A15D;}
	.st11{opacity:0.37;fill:#A5143A;}
	.st12{fill:none;stroke:#601B23;stroke-width:4;stroke-linecap:round;stroke-linejoin:round;stroke-miterlimit:10;}
	.st13{fill:#4E8280;}
	.st14{opacity:0.32;}
	.st15{fill:#F4A15D;}
	.st16{fill:#37605D;}
	.st17{opacity:0.72;fill:#A5143A;stroke:#A5143A;stroke-width:6;stroke-linecap:round;stroke-linejoin:round;stroke-miterlimit:10;}
	.st18{fill:#ABCFD8;}
	.st19{opacity:0.93;fill:#E2F0F2;}
	.st20{fill:#BC1D4E;}
	.st21{opacity:0.74;fill:#A5143A;}
	.st22{opacity:0.53;}
	.st23{opacity:0.41;fill:#FFFFFF;}
</style>
<path id="XMLID_29_" class="st0" d="M490.1,655.5c-9.4,1.2-16.9,14.4-18.3,25.3c-0.4,3.2-0.6,6.3-0.6,9.5c0,10.4,2.2,20.3,6.2,30.4
	c4,9.9,10,20,17.2,25.8c7.3-5.8,13.2-15.9,17.2-25.8c4-10.1,6.2-20,6.2-30.4c0-3.2-0.2-6.3-0.6-9.5c-1.4-11-8.9-24.1-18.3-25.3
	C496.2,655.2,493.1,655.2,490.1,655.5z"/>
<path id="XMLID_35_" class="st1" d="M490.1,655.5c-9.4,1.2-16.9,14.4-18.3,25.3c-0.4,3.2-0.6,6.3-0.6,9.5c0,10.4,2.2,20.3,6.2,30.4
	c4,9.9,10,20,17.2,25.8c7.3-5.8,13.2-15.9,17.2-25.8c4-10.1,6.2-20,6.2-30.4c0-3.2-0.2-6.3-0.6-9.5c-1.4-11-8.9-24.1-18.3-25.3
	C496.2,655.2,493.1,655.2,490.1,655.5z"/>
<path id="XMLID_178_" class="st2" d="M536.6,718.2c0,18.6-3.9,36.4-11.1,54.5c-0.2,0.6-0.5,1.2-0.8,1.9c-7.2,17.2-17.5,34.4-30,44.5
	c-12.9-10.4-23.4-28.3-30.7-46c-0.1-0.1-0.1-0.2-0.2-0.4c-7.2-18.1-11.1-35.9-11.1-54.5c0-5.7,0.4-11.3,1.1-17.1
	c2.4-19.4,15.6-42.8,32.1-45.3c0.2,0,0.4-0.1,0.6-0.1c5.2-0.6,10.5-0.6,15.7-0.1c0.2,0,0.5,0,0.7,0.1c16.8,2.1,30.3,25.8,32.7,45.4
	C536.2,706.9,536.6,712.5,536.6,718.2z"/>
<path id="XMLID_177_" class="st0" d="M536.6,718.2c0,18.6-3.9,36.4-11.1,54.5c-0.2,0.6-0.5,1.2-0.8,1.9c-7.2,17.2-17.5,34.4-30,44.5
	c-12.9-10.4-23.4-28.3-30.7-46c-0.1-0.1-0.1-0.2-0.2-0.4c-7.2-18.1-11.1-35.9-11.1-54.5c0-5.7,0.4-11.3,1.1-17.1
	c2.4-19.4,15.6-42.8,32.1-45.3c0.2,0,0.4-0.1,0.6-0.1c5.2-0.6,10.5-0.6,15.7-0.1c0.2,0,0.5,0,0.7,0.1c16.8,2.1,30.3,25.8,32.7,45.4
	C536.2,706.9,536.6,712.5,536.6,718.2z"/>
<rect id="XMLID_14_" class="st3" width="1000" height="1000"/>
<path id="XMLID_62_" class="st4" d="M1000,821.2c-15.2,4.5-27.6,15.6-33.8,30c-12-4.3-25-6.7-38.5-6.7c-40,0-75.2,20.6-95.6,51.7
	c-10.6-5-22.4-7.7-34.9-7.7c-5.5,0-10.8,0.5-15.9,1.6c0-0.5,0-1,0-1.6c0-25.5-18-46.8-41.9-51.9c-9.2-31.5-38.2-54.6-72.7-54.6
	c-28.7,0-53.7,16-66.5,39.5c-8.9-8.3-20.8-13.5-33.9-13.5c-7.5,0-14.6,1.7-21,4.6c-7.8-12.1-14.7-24.8-20.6-38.2
	C510.1,741.4,502,704.6,502,666c0-3.5,0.1-6.9,0.2-10.4c1.7-44.7,14.2-86.6,35.1-123.2h-86.5c20.9,36.6,33.4,78.6,35.1,123.3
	c0.1,3.4,0.2,6.8,0.2,10.2c0,38-7.9,74.3-22.1,107.1c-9.3,21.4-21.2,41.4-35.5,59.5c-12.1-15-30.6-24.5-51.3-24.5
	c-20.8,0-39.3,9.6-51.4,24.6c-9.7-5.7-20.9-9-33-9c-19.4,0-36.9,8.6-48.8,22.1c-17.6-26.1-47.4-43.3-81.2-43.3
	c-54,0-97.8,43.8-97.8,97.8c0,0.3,0,0.6,0,0.9C28.4,919.7,2.7,956.7,0.2,1000h236h483.9H1000V821.2z"/>
<g>
	<g>
		<g>
			<path class="st5" d="M63.2,959.2c0,2.5-1.2,3.7-2.6,3.7c-1.1,0-1.9-0.5-2.1-1.4c-0.4,0.5-1,0.8-1.8,0.8c-1.5,0-2.6-1.2-2.6-2.8
				c0-1.6,1.1-2.8,2.6-2.8c0.7,0,1.2,0.3,1.6,0.7v-0.5h1.6v3.9c0,0.8,0.3,1.4,1,1.4c0.9,0,1.7-0.9,1.7-3c0-3-2.3-5.3-5.4-5.3
				c-3.1,0-5.6,2.4-5.6,5.7c0,3.3,2.5,5.7,5.9,5.7c1.1,0,2.1-0.2,2.9-0.4v0.6c-0.8,0.3-1.7,0.4-2.9,0.4c-3.7,0-6.5-2.6-6.5-6.2
				c0-3.4,2.7-6.2,6.2-6.2C61.1,953.3,63.2,956.4,63.2,959.2z M58.3,959.5c0-0.8-0.6-1.4-1.3-1.4c-0.8,0-1.3,0.5-1.3,1.4
				c0,0.8,0.6,1.3,1.3,1.3C57.8,960.9,58.3,960.3,58.3,959.5z"/>
		</g>
		<g>
			<path class="st5" d="M69.4,955.1v2c-1.2-0.1-2.6,0.5-2.6,2.4v4.3h-1.9v-8.6h1.9v1.4C67.3,955.5,68.3,955.1,69.4,955.1z"/>
		</g>
		<g>
			<path class="st5" d="M74.6,962.3c1,0,1.8-0.5,2.2-1.1l1.5,0.9c-0.8,1.2-2.1,1.9-3.8,1.9c-2.8,0-4.7-1.9-4.7-4.5
				c0-2.5,1.8-4.5,4.5-4.5c2.6,0,4.3,2.1,4.3,4.5c0,0.3,0,0.5-0.1,0.8h-6.8C72.1,961.6,73.2,962.3,74.6,962.3z M76.9,958.8
				c-0.3-1.5-1.3-2.1-2.5-2.1c-1.4,0-2.3,0.8-2.6,2.1H76.9z"/>
		</g>
		<g>
			<path class="st5" d="M88.9,955.2v8.6h-1.9v-1.2c-0.7,0.9-1.7,1.5-3,1.5c-2.3,0-4.3-2-4.3-4.5c0-2.6,1.9-4.5,4.3-4.5
				c1.3,0,2.3,0.5,3,1.4v-1.2H88.9z M87.1,959.5c0-1.6-1.2-2.7-2.7-2.7c-1.5,0-2.7,1.1-2.7,2.7c0,1.6,1.2,2.7,2.7,2.7
				C85.9,962.3,87.1,961.1,87.1,959.5z"/>
		</g>
		<g>
			<path class="st5" d="M91.1,951.3H93v12.5h-1.9V951.3z"/>
		</g>
		<g>
			<path class="st5" d="M102.9,955.2l-3.3,8.6h-2.1l-3.3-8.6h2l2.4,6.5l2.4-6.5H102.9z"/>
		</g>
		<g>
			<path class="st5" d="M104.2,955.2h1.9v8.9c0,2.4-1.2,3.5-3.5,3.3v-1.8c1.1,0.1,1.7-0.3,1.7-1.5V955.2z M104,952.8
				c0-0.7,0.5-1.2,1.2-1.2c0.7,0,1.2,0.5,1.2,1.2c0,0.6-0.5,1.2-1.2,1.2C104.5,954,104,953.4,104,952.8z"/>
		</g>
		<g>
			<path class="st5" d="M116,955.2l-3.3,8.8c-0.8,2.2-2.2,3.3-4.2,3.2v-1.7c1.2,0.1,1.9-0.5,2.3-1.7l0.1-0.2l-3.6-8.4h2l2.6,6.2
				l2.2-6.2H116z"/>
		</g>
	</g>
	<g>
		<path class="st5" d="M211.9,938.7c0,2.1-1.5,3.8-3.6,3.8h-3v-7.6h3C210.4,934.9,211.9,936.6,211.9,938.7z M210.9,938.7
			c0-1.6-1.1-2.9-2.6-2.9h-2v5.7h2C209.8,941.6,210.9,940.3,210.9,938.7z"/>
		<path class="st5" d="M219.5,940.8h-3.4l-0.6,1.7h-1.1l2.8-7.6h1.1l2.8,7.6h-1.1L219.5,940.8z M219.2,939.9l-1.4-3.8l-1.4,3.8
			H219.2z"/>
		<path class="st5" d="M226.4,939.4v3.1h-1v-3.1l-2.7-4.5h1.1l2.1,3.6l2.1-3.6h1.1L226.4,939.4z"/>
		<path class="st5" d="M236.9,941.7l2.7-2.7c0.6-0.6,1.1-1.2,1.1-1.9c0-0.9-0.6-1.4-1.4-1.4c-0.7,0-1.2,0.3-1.6,1l-0.8-0.5
			c0.5-1,1.4-1.5,2.4-1.5c1.2,0,2.4,0.8,2.4,2.3c0,0.9-0.6,1.8-1.4,2.5l-2,1.9h3.5v1h-4.9V941.7z"/>
		<path class="st5" d="M244.9,938.7c0-2.4,1.1-4,2.9-4c1.9,0,2.9,1.6,2.9,4c0,2.4-1,4-2.9,4C246,942.7,244.9,941,244.9,938.7z
			 M249.8,938.7c0-1.9-0.7-3-1.9-3c-1.2,0-1.9,1.1-1.9,3s0.7,3,1.9,3C249.1,941.7,249.8,940.6,249.8,938.7z"/>
	</g>
	<g>
		<path class="st5" d="M58.9,938.7c0,2.1-1.5,3.8-3.6,3.8h-3v-7.6h3C57.4,934.9,58.9,936.6,58.9,938.7z M57.9,938.7
			c0-1.6-1.1-2.9-2.6-2.9h-2v5.7h2C56.8,941.6,57.9,940.3,57.9,938.7z"/>
		<path class="st5" d="M67,941.6v1h-4.6v-7.6h4.5v1h-3.5v2.3h3.2v0.9h-3.2v2.4H67z"/>
		<path class="st5" d="M70,940.8l0.9-0.5c0.3,0.8,0.9,1.4,2,1.4c1.1,0,1.6-0.5,1.6-1.2c0-0.8-0.7-1-1.8-1.4
			c-1.2-0.4-2.4-0.8-2.4-2.2c0-1.4,1.1-2.2,2.4-2.2c1.3,0,2.2,0.7,2.6,1.7l-0.8,0.5c-0.3-0.7-0.8-1.2-1.7-1.2
			c-0.8,0-1.4,0.4-1.4,1.1c0,0.7,0.5,1,1.6,1.3c1.3,0.4,2.6,0.8,2.6,2.3c0,1.3-1.1,2.2-2.6,2.2C71.5,942.7,70.4,941.9,70,940.8z"/>
		<path class="st5" d="M80,934.9v7.6h-1v-7.6H80z"/>
		<path class="st5" d="M91.3,939.2c0,1.9-1.4,3.5-3.7,3.5c-2.4,0-4-1.8-4-4c0-2.2,1.7-4,4-4c1.4,0,2.7,0.8,3.3,1.8l-0.9,0.5
			c-0.4-0.8-1.4-1.4-2.4-1.4c-1.8,0-3,1.3-3,3c0,1.7,1.2,3,3,3c1.6,0,2.5-0.9,2.7-2h-2.8v-0.9h3.8V939.2z"/>
		<path class="st5" d="M100.6,934.9v7.6h-0.8l-3.9-5.7v5.7h-1v-7.6h0.8l3.9,5.7v-5.7H100.6z"/>
		<path class="st5" d="M109.1,941.6v1h-4.6v-7.6h4.5v1h-3.5v2.3h3.2v0.9h-3.2v2.4H109.1z"/>
		<path class="st5" d="M119.2,938.7c0,2.1-1.5,3.8-3.6,3.8h-3v-7.6h3C117.6,934.9,119.2,936.6,119.2,938.7z M118.2,938.7
			c0-1.6-1.1-2.9-2.6-2.9h-2v5.7h2C117.1,941.6,118.2,940.3,118.2,938.7z"/>
		<path class="st5" d="M133.2,940.4c0,1.2-1,2.2-2.2,2.2h-3.3v-7.6h3c1.2,0,2.1,0.9,2.1,2.1c0,0.7-0.3,1.2-0.8,1.6
			C132.7,938.9,133.2,939.5,133.2,940.4z M128.7,935.8v2.3h2c0.6,0,1.1-0.5,1.1-1.2c0-0.6-0.5-1.2-1.1-1.2H128.7z M132.2,940.3
			c0-0.7-0.5-1.2-1.2-1.2h-2.3v2.5h2.3C131.7,941.6,132.2,941,132.2,940.3z"/>
		<path class="st5" d="M139.4,939.4v3.1h-1v-3.1l-2.7-4.5h1.1l2.1,3.6l2.1-3.6h1.1L139.4,939.4z"/>
	</g>
	<g>
		<path class="st5" d="M209.9,959.8h-2.4v4.5h-2v-12.4h5c2.2,0,4,1.8,4,4c0,1.6-1,3-2.5,3.6l2.8,4.8h-2.2L209.9,959.8z M207.5,958
			h2.9c1.1,0,1.9-0.9,1.9-2.1c0-1.2-0.9-2.1-1.9-2.1h-2.9V958z"/>
		<path class="st5" d="M215.2,959.9c0-2.6,2.1-4.7,4.7-4.7c2.6,0,4.7,2,4.7,4.7c0,2.6-2.1,4.7-4.7,4.7
			C217.3,964.5,215.2,962.5,215.2,959.9z M222.7,959.9c0-1.6-1.2-2.8-2.8-2.8s-2.8,1.2-2.8,2.8c0,1.6,1.2,2.8,2.8,2.8
			S222.7,961.5,222.7,959.9z"/>
		<path class="st5" d="M225.8,959.9c0-2.6,2-4.7,4.7-4.7c1.7,0,3.2,0.9,3.9,2.3l-1.6,1c-0.4-0.8-1.3-1.4-2.3-1.4
			c-1.6,0-2.7,1.2-2.7,2.8c0,1.6,1.2,2.8,2.7,2.8c1.1,0,1.9-0.5,2.4-1.4l1.6,0.9c-0.7,1.4-2.2,2.3-4,2.3
			C227.8,964.5,225.8,962.5,225.8,959.9z"/>
		<path class="st5" d="M241.4,964.3l-3.6-4.1v4.1h-1.9v-12.4h1.9v7.5l3.4-3.9h2.3l-3.9,4.3l4,4.5H241.4z"/>
		<path class="st5" d="M248.6,962.8c1.1,0,1.9-0.5,2.3-1.1l1.6,0.9c-0.8,1.2-2.1,1.9-3.9,1.9c-2.9,0-4.8-2-4.8-4.7
			c0-2.6,1.9-4.7,4.7-4.7c2.6,0,4.4,2.1,4.4,4.7c0,0.3,0,0.5-0.1,0.8h-7C246.1,962.1,247.2,962.8,248.6,962.8z M251,959.1
			c-0.3-1.5-1.4-2.2-2.5-2.2c-1.4,0-2.4,0.8-2.7,2.2H251z"/>
		<path class="st5" d="M257,957.3v4.2c0,1.1,0.7,1.1,2.2,1v1.7c-2.9,0.4-4.1-0.5-4.1-2.8v-4.2h-1.6v-1.8h1.6v-1.9l1.9-0.6v2.5h2.2
			v1.8H257z"/>
	</g>
	<g>
		<g>
			<path class="st5" d="M846.1,938.7c0,2.1-1.5,3.8-3.6,3.8h-3v-7.6h3C844.6,934.9,846.1,936.6,846.1,938.7z M845.2,938.7
				c0-1.6-1.1-2.9-2.6-2.9h-2v5.7h2C844.1,941.6,845.2,940.3,845.2,938.7z"/>
		</g>
		<g>
			<path class="st5" d="M849.3,938.7c0-2.2,1.7-4,3.9-4c2.2,0,4,1.8,4,4c0,2.2-1.7,4-4,4C851,942.7,849.3,940.9,849.3,938.7z
				 M856.1,938.7c0-1.7-1.3-3-2.9-3c-1.7,0-2.9,1.3-2.9,3c0,1.7,1.3,3,2.9,3C854.9,941.7,856.1,940.4,856.1,938.7z"/>
		</g>
		<g>
			<path class="st5" d="M859.8,934.9h1.1l1.7,6.3l1.9-6.3h1l1.9,6.3l1.7-6.3h1.1l-2.2,7.6h-1.2l-1.8-6.1l-1.8,6.1H862L859.8,934.9z"
				/>
		</g>
		<g>
			<path class="st5" d="M879.3,934.9v7.6h-0.8l-3.9-5.7v5.7h-1v-7.6h0.8l3.9,5.7v-5.7H879.3z"/>
		</g>
		<g>
			<path class="st5" d="M887.5,941.6v1h-4.3v-7.6h1v6.7H887.5z"/>
		</g>
		<g>
			<path class="st5" d="M889.9,938.7c0-2.2,1.7-4,3.9-4c2.2,0,4,1.8,4,4c0,2.2-1.7,4-4,4C891.6,942.7,889.9,940.9,889.9,938.7z
				 M896.8,938.7c0-1.7-1.3-3-2.9-3c-1.7,0-2.9,1.3-2.9,3c0,1.7,1.3,3,2.9,3C895.5,941.7,896.8,940.4,896.8,938.7z"/>
		</g>
		<g>
			<path class="st5" d="M905.4,940.8H902l-0.6,1.7h-1.1l2.8-7.6h1.1l2.8,7.6H906L905.4,940.8z M905.1,939.9l-1.4-3.8l-1.4,3.8H905.1
				z"/>
		</g>
		<g>
			<path class="st5" d="M916.9,938.7c0,2.1-1.5,3.8-3.6,3.8h-3v-7.6h3C915.4,934.9,916.9,936.6,916.9,938.7z M915.9,938.7
				c0-1.6-1.1-2.9-2.6-2.9h-2v5.7h2C914.9,941.6,915.9,940.3,915.9,938.7z"/>
		</g>
		<g>
			<path class="st5" d="M926.5,935.8v2.5h3.2v1h-3.2v3.2h-1v-7.6h4.4v1H926.5z"/>
		</g>
		<g>
			<path class="st5" d="M936.2,939.6h-1.8v2.9h-1v-7.6h3c1.3,0,2.4,1.1,2.4,2.4c0,1-0.7,1.9-1.6,2.2l1.8,3.1h-1.1L936.2,939.6z
				 M934.4,938.7h2c0.8,0,1.4-0.6,1.4-1.4c0-0.8-0.6-1.4-1.4-1.4h-2V938.7z"/>
		</g>
		<g>
			<path class="st5" d="M941.9,938.7c0-2.2,1.7-4,3.9-4c2.2,0,4,1.8,4,4c0,2.2-1.7,4-4,4C943.6,942.7,941.9,940.9,941.9,938.7z
				 M948.8,938.7c0-1.7-1.3-3-2.9-3c-1.7,0-2.9,1.3-2.9,3c0,1.7,1.3,3,2.9,3C947.5,941.7,948.8,940.4,948.8,938.7z"/>
		</g>
		<g>
			<path class="st5" d="M960.4,942.5h-1v-6l-2.5,4.2h-0.1l-2.5-4.1v5.9h-1v-7.6h1.1l2.4,4l2.4-4h1.1V942.5z"/>
		</g>
	</g>
	<g>
		<g>
			<path class="st5" d="M839.3,952.9c0-0.7,0.5-1.2,1.2-1.2c0.7,0,1.2,0.5,1.2,1.2c0,0.7-0.5,1.2-1.2,1.2
				C839.9,954.1,839.3,953.6,839.3,952.9z M839.6,955.4h1.9v8.9h-1.9V955.4z"/>
		</g>
		<g>
			<path class="st5" d="M843.7,951.4h1.9v12.9h-1.9V951.4z"/>
		</g>
		<g>
			<path class="st5" d="M847.8,951.4h1.9v12.9h-1.9V951.4z"/>
		</g>
		<g>
			<path class="st5" d="M852,951.4h1.9v12.9H852V951.4z"/>
		</g>
		<g>
			<path class="st5" d="M864,955.4v8.9h-1.9v-1.1c-0.6,0.9-1.5,1.4-2.7,1.4c-2,0-3.4-1.3-3.4-3.6v-5.4h1.9v5.2c0,1.3,0.8,2.1,2,2.1
				c1.3,0,2.2-0.7,2.2-2.5v-4.7H864z"/>
		</g>
		<g>
			<path class="st5" d="M872.6,961.8c0,1.8-1.5,2.7-3.5,2.7c-1.8,0-3-0.8-3.6-2.1l1.6-1c0.3,0.8,1,1.3,2,1.3c0.8,0,1.5-0.3,1.5-1
				c0-1.6-4.8-0.7-4.8-3.9c0-1.7,1.4-2.7,3.2-2.7c1.5,0,2.7,0.7,3.3,1.8l-1.6,0.9c-0.3-0.7-0.9-1-1.7-1c-0.7,0-1.3,0.3-1.3,0.9
				C867.9,959.5,872.6,958.5,872.6,961.8z"/>
		</g>
		<g>
			<path class="st5" d="M876.7,957.3v4.2c0,1.1,0.7,1.1,2.2,1v1.7c-2.9,0.4-4.1-0.5-4.1-2.8v-4.2h-1.6v-1.8h1.6v-1.9l1.9-0.6v2.5
				h2.2v1.8H876.7z"/>
		</g>
		<g>
			<path class="st5" d="M885.4,955.3v2.1c-1.3-0.1-2.7,0.5-2.7,2.5v4.5h-1.9v-8.9h1.9v1.5C883.2,955.7,884.2,955.3,885.4,955.3z"/>
		</g>
		<g>
			<path class="st5" d="M895.3,955.4v8.9h-1.9V963c-0.7,0.9-1.7,1.5-3.1,1.5c-2.4,0-4.4-2-4.4-4.7c0-2.6,2-4.7,4.4-4.7
				c1.4,0,2.4,0.6,3.1,1.5v-1.3H895.3z M893.4,959.9c0-1.6-1.2-2.8-2.8-2.8c-1.6,0-2.8,1.2-2.8,2.8c0,1.6,1.2,2.8,2.8,2.8
				C892.2,962.7,893.4,961.5,893.4,959.9z"/>
		</g>
		<g>
			<path class="st5" d="M900.3,957.3v4.2c0,1.1,0.7,1.1,2.2,1v1.7c-2.9,0.4-4.1-0.5-4.1-2.8v-4.2h-1.6v-1.8h1.6v-1.9l1.9-0.6v2.5
				h2.2v1.8H900.3z"/>
		</g>
		<g>
			<path class="st5" d="M903.9,952.9c0-0.7,0.5-1.2,1.2-1.2c0.7,0,1.2,0.5,1.2,1.2c0,0.7-0.5,1.2-1.2,1.2
				C904.5,954.1,903.9,953.6,903.9,952.9z M904.2,955.4h1.9v8.9h-1.9V955.4z"/>
		</g>
		<g>
			<path class="st5" d="M907.8,959.9c0-2.6,2.1-4.7,4.7-4.7c2.6,0,4.7,2,4.7,4.7c0,2.6-2.1,4.7-4.7,4.7
				C909.9,964.5,907.8,962.5,907.8,959.9z M915.3,959.9c0-1.6-1.2-2.8-2.8-2.8c-1.6,0-2.8,1.2-2.8,2.8c0,1.6,1.2,2.8,2.8,2.8
				C914.1,962.7,915.3,961.5,915.3,959.9z"/>
		</g>
		<g>
			<path class="st5" d="M927,958.9v5.4h-1.9v-5.2c0-1.3-0.8-2.1-2-2.1c-1.3,0-2.2,0.7-2.2,2.5v4.7h-1.9v-8.9h1.9v1.1
				c0.6-0.9,1.5-1.4,2.7-1.4C925.5,955.2,927,956.6,927,958.9z"/>
		</g>
		<g>
			<path class="st5" d="M935.5,961.8c0,1.8-1.5,2.7-3.5,2.7c-1.8,0-3-0.8-3.6-2.1l1.6-1c0.3,0.8,1,1.3,2,1.3c0.8,0,1.5-0.3,1.5-1
				c0-1.6-4.8-0.7-4.8-3.9c0-1.7,1.4-2.7,3.2-2.7c1.5,0,2.7,0.7,3.3,1.8l-1.6,0.9c-0.3-0.7-0.9-1-1.7-1c-0.7,0-1.3,0.3-1.3,0.9
				C930.7,959.5,935.5,958.5,935.5,961.8z"/>
		</g>
		<g>
			<path class="st5" d="M936.8,963.2c0-0.7,0.6-1.3,1.3-1.3c0.7,0,1.3,0.6,1.3,1.3c0,0.7-0.6,1.3-1.3,1.3
				C937.4,964.5,936.8,963.9,936.8,963.2z"/>
		</g>
		<g>
			<path class="st5" d="M940.3,959.9c0-2.6,2-4.7,4.7-4.7c1.7,0,3.2,0.9,3.9,2.3l-1.6,1c-0.4-0.8-1.3-1.4-2.3-1.4
				c-1.6,0-2.7,1.2-2.7,2.8c0,1.6,1.2,2.8,2.7,2.8c1.1,0,1.9-0.5,2.4-1.4l1.6,0.9c-0.7,1.4-2.2,2.3-4,2.3
				C942.3,964.5,940.3,962.5,940.3,959.9z"/>
		</g>
		<g>
			<path class="st5" d="M949.7,959.9c0-2.6,2.1-4.7,4.7-4.7c2.6,0,4.7,2,4.7,4.7c0,2.6-2.1,4.7-4.7,4.7
				C951.8,964.5,949.7,962.5,949.7,959.9z M957.2,959.9c0-1.6-1.2-2.8-2.8-2.8s-2.8,1.2-2.8,2.8c0,1.6,1.2,2.8,2.8,2.8
				S957.2,961.5,957.2,959.9z"/>
		</g>
	</g>
</g>
<path id="XMLID_79_" class="st6" d="M374,502.8l-32.6,12.7v-61.9l100.1-78.1v117.1l-24.2,12.7C404.4,498.5,388.7,497.1,374,502.8z"
	/>
<path id="XMLID_19_" class="st7" d="M330.8,531.7c-10.2-14.8-16.1-32.3-16.1-51c0-23.7,9.3-45.4,24.8-62.1
	c15.5,16.7,24.9,38.4,25,62.1c0,18.8-5.9,36.2-16,51L330.8,531.7z"/>
<path id="XMLID_83_" class="st8" d="M341.4,515.5l32.4-12.6c0.4-8.6-0.2-17.4-1.8-26.2c-2.4-13.2-6.9-25.6-13.1-36.8l-17.5,13.7
	V515.5z"/>
<polygon id="XMLID_63_" class="st9" points="345.6,470.9 441.6,396.1 441.6,375.5 341.4,453.5 341.4,515.5 345.6,513.9 "/>
<path id="XMLID_69_" class="st8" d="M401.7,500c5.5,0.9,10.7,2.7,15.6,5.3l24.2-12.7V375.5l-42.2,32.9c-2.1,12.7-3.1,26-3.1,39.7
	C396.3,466.2,398.2,483.7,401.7,500z"/>
<path id="XMLID_72_" class="st0" d="M374,502.8l-32.6,12.7v-61.9l100.1-78.1v117.1l-24.2,12.7C404.4,498.5,388.7,497.1,374,502.8z"
	/>
<path id="XMLID_34_" class="st7" d="M330.8,531.7c-10.2-14.8-16.1-32.3-16.1-51c0-23.7,9.3-45.4,24.8-62.1
	c15.5,16.7,24.9,38.4,25,62.1c0,18.8-5.9,36.2-16,51L330.8,531.7z"/>
<path id="XMLID_37_" class="st9" d="M338,418.6c1.2,1.3,2.4,2.7,3.5,4.1c-10.4,16-16.4,34.8-16.5,54.8c0,19.8,3,38.3,13.2,54.3
	l-9.2,0c-10.1-14.8-16-32.3-16-51C313.1,457,322.5,435.3,338,418.6z"/>
<path id="XMLID_4_" class="st10" d="M338,418.6c0.4,0.4,0.8,0.9,1.2,1.4c-11.7,17.3-18.4,37.6-18.5,59.4c0,18.9,5.1,36.7,14,52.4
	l-5.7,0c-10.1-14.8-16-32.3-16-51C313.1,457,322.5,435.3,338,418.6z"/>
<path id="XMLID_9_" class="st11" d="M364.5,480.7c0-23.7-9.4-45.3-25-62.1c-1.2,1.3-2.4,2.7-3.5,4.1c10.4,16,16.4,34.8,16.5,54.8
	c0,19.8-5.8,38.3-16,54.3l12,0C358.6,516.9,364.5,499.4,364.5,480.7z"/>
<path id="XMLID_45_" class="st8" d="M364.5,480.7c0-23.7-9.4-45.3-25-62.1c-0.4,0.4-0.8,0.9-1.2,1.4c11.7,17.3,18.4,37.6,18.5,59.4
	c0,18.9-5.1,36.7-14,52.4l5.7,0C358.6,516.9,364.5,499.4,364.5,480.7z"/>
<path id="XMLID_10_" class="st11" d="M339.5,418.6c-1.2,1.3-2.4,2.7-3.5,4.1c10.4,16,16.4,34.8,16.5,54.8c0,19.8-5.8,38.3-16,54.3
	l12,0c10.1-14.8,16-32.3,16-51C364.4,457,355,435.3,339.5,418.6z"/>
<path id="XMLID_16_" class="st8" d="M339.5,418.6c-0.4,0.4-0.8,0.9-1.2,1.4c11.7,17.3,18.4,37.6,18.5,59.4c0,18.9-5.1,36.7-14,52.4
	l5.7,0c10.1-14.8,16-32.3,16-51C364.4,457,355,435.3,339.5,418.6z"/>
<path id="XMLID_95_" class="st5" d="M350.9,436.6c-3.7-6.5-8.1-12.5-13.2-18.1c-5.1,5.5-9.5,11.6-13.2,18.1L350.9,436.6z"/>
<path id="XMLID_28_" class="st0" d="M330.8,531.7c-10.2-14.8-16.1-32.3-16.1-51c0-23.7,9.3-45.4,24.8-62.1
	c15.5,16.7,24.9,38.4,25,62.1c0,18.8-5.9,36.2-16,51L330.8,531.7z"/>
<path id="XMLID_31_" class="st7" d="M460.7,608.9c0,0-12.1,2.6-29.5,20c-6.3,6.3-16.2,19.1-23.5,28.8c-3,4-9.4,2-9.5-3l-2.4-106.5
	c-0.5-3,0.3-6.1,2.2-8.4l26.2-32.6L460.7,608.9z"/>
<path id="XMLID_24_" class="st10" d="M398,656.8L398,656.8c5.7-0.8,10-5.7,10.1-11.5l1.1-99c-0.5-3,0.3-6.1,2.2-8.4l16.4-20.5
	l-3.7-10.2L398,539.7c-1.9,2.4-2.7,5.4-2.2,8.4L398,656.8z"/>
<path id="XMLID_84_" class="st8" d="M460.7,608.9l-36.5-101.7l-14.5,18.1c7.8,30,20.1,60.5,36.7,90.9
	C455.2,610.1,460.7,608.9,460.7,608.9z"/>
<path id="XMLID_21_" class="st0" d="M460.7,608.9c0,0-12.1,2.6-29.5,20c-6.3,6.3-16.2,19.1-23.5,28.8c-3,4-9.4,2-9.5-3l-2.4-106.5
	c-0.5-3,0.3-6.1,2.2-8.4l26.2-32.6L460.7,608.9z"/>
<line id="XMLID_32_" class="st12" x1="321.3" y1="518.5" x2="354.2" y2="518.5"/>
<path id="XMLID_192_" class="st7" d="M330.8,531.7c-10.2-14.8-16.1-32.3-16.1-51c0-23.7,9.3-45.4,24.8-62.1
	c15.5,16.7,24.9,38.4,25,62.1c0,18.8-5.9,36.2-16,51L330.8,531.7z"/>
<path id="XMLID_161_" class="st7" d="M330.8,531.7c-10.2-14.8-16.1-32.3-16.1-51c0-23.7,9.3-45.4,24.8-62.1
	c15.5,16.7,24.9,38.4,25,62.1c0,18.8-5.9,36.2-16,51L330.8,531.7z"/>
<path id="XMLID_155_" class="st9" d="M338,418.6c1.2,1.3,2.4,2.7,3.5,4.1c-10.4,16-16.4,34.8-16.5,54.8c0,19.8,3,38.3,13.2,54.3
	l-9.2,0c-10.1-14.8-16-32.3-16-51C313.1,457,322.5,435.3,338,418.6z"/>
<path id="XMLID_147_" class="st10" d="M338,418.6c0.4,0.4,0.8,0.9,1.2,1.4c-11.7,17.3-18.4,37.6-18.5,59.4c0,18.9,5.1,36.7,14,52.4
	l-5.7,0c-10.1-14.8-16-32.3-16-51C313.1,457,322.5,435.3,338,418.6z"/>
<path id="XMLID_144_" class="st11" d="M364.5,480.7c0-23.7-9.4-45.3-25-62.1c-1.2,1.3-2.4,2.7-3.5,4.1c10.4,16,16.4,34.8,16.5,54.8
	c0,19.8-5.8,38.3-16,54.3l12,0C358.6,516.9,364.5,499.4,364.5,480.7z"/>
<path id="XMLID_140_" class="st8" d="M364.5,480.7c0-23.7-9.4-45.3-25-62.1c-0.4,0.4-0.8,0.9-1.2,1.4c11.7,17.3,18.4,37.6,18.5,59.4
	c0,18.9-5.1,36.7-14,52.4l5.7,0C358.6,516.9,364.5,499.4,364.5,480.7z"/>
<path id="XMLID_134_" class="st11" d="M339.5,418.6c-1.2,1.3-2.4,2.7-3.5,4.1c10.4,16,16.4,34.8,16.5,54.8c0,19.8-5.8,38.3-16,54.3
	l12,0c10.1-14.8,16-32.3,16-51C364.4,457,355,435.3,339.5,418.6z"/>
<path id="XMLID_130_" class="st8" d="M339.5,418.6c-0.4,0.4-0.8,0.9-1.2,1.4c11.7,17.3,18.4,37.6,18.5,59.4c0,18.9-5.1,36.7-14,52.4
	l5.7,0c10.1-14.8,16-32.3,16-51C364.4,457,355,435.3,339.5,418.6z"/>
<path id="XMLID_67_" class="st5" d="M352.7,436.6c-3.7-6.5-8.1-12.5-13.2-18.1c-5.1,5.5-9.5,11.6-13.2,18.1L352.7,436.6z"/>
<path id="XMLID_39_" class="st0" d="M330.8,531.7c-10.2-14.8-16.1-32.3-16.1-51c0-23.7,9.3-45.4,24.8-62.1
	c15.5,16.7,24.9,38.4,25,62.1c0,18.8-5.9,36.2-16,51L330.8,531.7z"/>
<line id="XMLID_12_" class="st12" x1="321.3" y1="518.5" x2="354.2" y2="518.5"/>
<path id="XMLID_196_" class="st6" d="M609.5,502.8l32.6,12.7v-61.9L542,375.5v117.1l24.2,12.7C579.1,498.5,594.8,497.1,609.5,502.8z
	"/>
<path id="XMLID_188_" class="st8" d="M642.1,515.5l-32.4-12.6c-0.4-8.6,0.2-17.4,1.8-26.2c2.4-13.2,6.9-25.6,13.1-36.8l17.5,13.7
	V515.5z"/>
<polygon id="XMLID_181_" class="st9" points="638,470.9 542,396.1 542,375.5 642.1,453.5 642.1,515.5 638,513.9 "/>
<path id="XMLID_175_" class="st8" d="M581.8,500c-5.5,0.9-10.7,2.7-15.6,5.3L542,492.6V375.5l42.2,32.9c2.1,12.7,3.1,26,3.1,39.7
	C587.3,466.2,585.4,483.7,581.8,500z"/>
<path id="XMLID_166_" class="st0" d="M609.5,502.8l32.6,12.7v-61.9L542,375.5v117.1l24.2,12.7C579.1,498.5,594.8,497.1,609.5,502.8z
	"/>
<path id="XMLID_59_" class="st7" d="M522.9,608.9c0,0,12.1,2.6,29.5,20c6.3,6.3,16.2,19.1,23.5,28.8c3,4,9.4,2,9.5-3l2.4-106.5
	c0.5-3-0.3-6.1-2.2-8.4l-26.2-32.6L522.9,608.9z"/>
<path id="XMLID_48_" class="st8" d="M585.5,656.8L585.5,656.8c-5.7-0.8-10-5.7-10.1-11.5l-1.1-99c0.5-3-0.3-6.1-2.2-8.4l-16.4-20.5
	l3.7-10.2l26.2,32.6c1.9,2.4,2.7,5.4,2.2,8.4L585.5,656.8z"/>
<path id="XMLID_47_" class="st8" d="M522.9,608.9l36.5-101.7l14.5,18.1c-7.8,30-20.1,60.5-36.7,90.9
	C528.4,610.1,522.9,608.9,522.9,608.9z"/>
<path id="XMLID_33_" class="st0" d="M522.9,608.9c0,0,12.1,2.6,29.5,20c6.3,6.3,16.2,19.1,23.5,28.8c3,4,9.4,2,9.5-3l2.4-106.5
	c0.5-3-0.3-6.1-2.2-8.4l-26.2-32.6L522.9,608.9z"/>
<path id="XMLID_22_" class="st13" d="M522.4,666.1c1.1-11.9-0.5-23.1-20.5-52.6c-3.3-4.7-11.2-4.7-14.5,0
	c-20,29.6-21.6,40.8-20.5,52.6c0.2,1.5,2.9,3.2,4.6,2.6c11.5-5.9,34.8-5.9,46.3,0C519.5,669.3,522.2,667.7,522.4,666.1z"/>
<g id="XMLID_107_" class="st14">
	<g id="XMLID_222_">
		<g id="XMLID_225_">
			<path id="XMLID_226_" class="st15" d="M477,666.1c-1.1-11.9,0.5-23.1,20.5-52.6c0.6-0.9,1.4-1.6,2.2-2.1
				c-3.8-2.5-9.6-1.8-12.3,2.1c-20,29.6-21.6,40.8-20.5,52.6c0.2,1.5,2.9,3.2,4.6,2.6c1.7-0.8,3.6-1.6,5.6-2.2
				C477.1,666.4,477,666.3,477,666.1z"/>
		</g>
		<g id="XMLID_223_">
			<path id="XMLID_224_" class="st15" d="M499.7,664.5c6.9,0.5,13.4,1.9,18.1,4.2c1.5,0.6,3.9-0.8,4.5-2.2
				C515.7,664.6,507.5,663.9,499.7,664.5z"/>
		</g>
	</g>
</g>
<g id="XMLID_46_">
	<g id="XMLID_168_">
		<g id="XMLID_169_">
			<path id="XMLID_170_" class="st16" d="M490.9,613.5c-0.3-0.4-0.6-0.7-0.9-1c3.7-3.7,10.6-3.3,13.6,1c20,29.6,21.6,40.8,20.5,52.6
				c-0.2,1.5-2.9,3.2-4.6,2.6c-2.3-1.2-5.1-2.1-8.1-2.8C512.5,654.1,510.8,642.9,490.9,613.5z"/>
		</g>
	</g>
</g>
<path id="XMLID_17_" class="st0" d="M522.4,666.1c1.1-11.9-0.5-23.1-20.5-52.6c-3.3-4.7-11.2-4.7-14.5,0
	c-20,29.6-21.6,40.8-20.5,52.6c0.2,1.5,2.9,3.2,4.6,2.6c11.5-5.9,34.8-5.9,46.3,0C519.5,669.3,522.2,667.7,522.4,666.1z"/>
<path id="XMLID_15_" class="st7" d="M517.2,630.2c47.1-77.1,64.2-152.8,53.6-215.9c-9.2-54.8-38.8-94.3-76.2-119
	c-37.4,24.7-67,64.2-76.2,119c-10.6,63.1,6.6,138.8,53.6,215.9H517.2z"/>
<path id="XMLID_20_" class="st9" d="M454.2,415.4c6-49.6,21.6-89,42.6-118.5c-0.7-0.5-1.5-1-2.2-1.5c-37.4,24.7-67,64.2-76.2,119
	c-10.6,63.1,6.6,138.8,53.6,215.9h9.5C455.4,553.2,446.6,479.1,454.2,415.4z"/>
<path id="XMLID_54_" class="st11" d="M570.8,414.3c-9.1-54.4-38.3-93.7-75.4-118.4c6.9,11.1,15.7,27.1,23.1,47.4
	c13.5,36.9,15,67.3,15.8,86.4c3.6,85.9-29.3,180.9-36.2,200.6h19.1C564.3,553.1,581.4,477.4,570.8,414.3z"/>
<path id="XMLID_5_" class="st8" d="M570.8,414.3c-9.2-54.8-38.8-94.3-76.2-119c-1,0.6-1.9,1.3-2.9,1.9c14.2,11.1,25,23,33.2,34.4
	c73.6,102.4,3,255.7-6.7,276c-0.4-13.8-2.2-30.9-7.3-50c-3.3-12.2-7.3-22.9-11.3-32c-1.5,33.9-3,67.8-4.5,101.7h12.4
	c-0.3,1-0.6,1.9-1,2.9h10.5C564.3,553.1,581.4,477.4,570.8,414.3z"/>
<path id="XMLID_6_" class="st10" d="M431,431.7c1.4-16,6.6-68,38.7-110.7c5.1-6.7,12.7-15.8,12.1-16.3c-0.9-0.8-18.5,15.1-31,32
	c-15.7,21.1-27.2,47-32.3,77.6c-10.6,63.1,6.6,138.8,53.6,215.9h4.1c-12.9-25.7-21.4-48.9-27.2-67.2c-3.8-12.3-10.5-34.1-14.7-63.3
	C431.6,480.1,428.6,459.1,431,431.7z"/>
<circle id="XMLID_13_" class="st17" cx="500" cy="425.1" r="27.2"/>
<path id="XMLID_11_" class="st0" d="M517.2,630.2c47.1-77.1,64.2-152.8,53.6-215.9c-9.2-54.8-38.8-94.3-76.2-119
	c-37.4,24.7-67,64.2-76.2,119c-10.6,63.1,6.6,138.8,53.6,215.9H517.2z"/>
<circle id="XMLID_25_" class="st18" cx="494.6" cy="420.9" r="27.2"/>
<circle id="XMLID_26_" class="st19" cx="490.9" cy="419.4" r="16.4"/>
<circle id="XMLID_1_" class="st0" cx="494.6" cy="420.9" r="27.2"/>
<path id="XMLID_44_" class="st5" d="M456.2,329.8c24.9-8.6,52.2-8.6,77.1,0.1c-11.3-13.7-24.4-25.2-38.6-34.6
	C480.5,304.7,467.4,316.2,456.2,329.8z"/>
<path id="XMLID_23_" class="st0" d="M456.2,329.8c24.9-8.6,52.2-8.6,77.1,0.1c-11.3-13.7-24.4-25.2-38.6-34.6
	C480.5,304.7,467.4,316.2,456.2,329.8z"/>
<path id="XMLID_18_" class="st20" d="M494.6,677L494.6,677c1.1,0,2-1.2,2.1-2.8l7.5-122.4c0.8-12.6-3.2-24.3-9.1-27.1
	c-0.4-0.2-0.8-0.2-1.1,0c-5.9,2.7-9.9,14.4-9.1,27.1l7.5,122.4C492.6,675.8,493.6,677,494.6,677z"/>
<path id="XMLID_2_" class="st21" d="M494.6,677L494.6,677c1.1,0,2-1.2,2.1-2.8l7.5-122.4c0.8-12.6-3.2-24.3-9.1-27.1
	c-0.4-0.2-0.8-0.2-1.1,0c-5.9,2.7-9.9,14.4-9.1,27.1l7.5,122.4C492.6,675.8,493.6,677,494.6,677z"/>
<g id="XMLID_8_" class="st22">
	<g id="XMLID_199_">
		<g id="XMLID_202_">
			<path id="XMLID_203_" class="st15" d="M494.1,524.7c-5.9,2.7-9.9,14.4-9.1,27.1l7.5,122.4c0.1,1.3,0.7,2.4,1.5,2.7V524.7z"/>
		</g>
		<g id="XMLID_200_">
			<path id="XMLID_201_" class="st15" d="M494.1,524.7h1.1C494.8,524.5,494.4,524.5,494.1,524.7z"/>
		</g>
	</g>
</g>
<path id="XMLID_27_" class="st0" d="M494.6,677L494.6,677c1.1,0,2-1.2,2.1-2.8l7.5-122.4c0.8-12.6-3.2-24.3-9.1-27.1
	c-0.4-0.2-0.8-0.2-1.1,0c-5.9,2.7-9.9,14.4-9.1,27.1l7.5,122.4C492.6,675.8,493.6,677,494.6,677z"/>
<path id="XMLID_255_" class="st7" d="M641.4,531.7c-10.2-14.8-16.1-32.3-16.1-51c0-23.7,9.3-45.4,24.8-62.1
	c15.5,16.7,24.9,38.4,25,62.1c0,18.8-5.9,36.2-16,51L641.4,531.7z"/>
<path id="XMLID_249_" class="st7" d="M641.4,531.7c-10.2-14.8-16.1-32.3-16.1-51c0-23.7,9.3-45.4,24.8-62.1
	c15.5,16.7,24.9,38.4,25,62.1c0,18.8-5.9,36.2-16,51L641.4,531.7z"/>
<path id="XMLID_245_" class="st9" d="M648.7,418.6c1.2,1.3,2.4,2.7,3.5,4.1c-10.4,16-16.4,34.8-16.5,54.8c0,19.8,3,38.3,13.2,54.3
	l-9.2,0c-10.1-14.8-16-32.3-16-51C623.7,457,633.1,435.3,648.7,418.6z"/>
<path id="XMLID_242_" class="st10" d="M648.7,418.6c0.4,0.4,0.8,0.9,1.2,1.4c-11.7,17.3-18.4,37.6-18.5,59.4
	c0,18.9,5.1,36.7,14,52.4l-5.7,0c-10.1-14.8-16-32.3-16-51C623.7,457,633.1,435.3,648.7,418.6z"/>
<path id="XMLID_239_" class="st11" d="M675.1,480.7c0-23.7-9.4-45.3-25-62.1c-1.2,1.3-2.4,2.7-3.5,4.1c10.4,16,16.4,34.8,16.5,54.8
	c0,19.8-5.8,38.3-16,54.3l12,0C669.2,516.9,675.1,499.4,675.1,480.7z"/>
<path id="XMLID_236_" class="st8" d="M675.1,480.7c0-23.7-9.4-45.3-25-62.1c-0.4,0.4-0.8,0.9-1.2,1.4c11.7,17.3,18.4,37.6,18.5,59.4
	c0,18.9-5.1,36.7-14,52.4l5.7,0C669.2,516.9,675.1,499.4,675.1,480.7z"/>
<path id="XMLID_233_" class="st11" d="M650.1,418.6c-1.2,1.3-2.4,2.7-3.5,4.1c10.4,16,16.4,34.8,16.5,54.8c0,19.8-5.8,38.3-16,54.3
	l12,0c10.1-14.8,16-32.3,16-51C675.1,457,665.7,435.3,650.1,418.6z"/>
<path id="XMLID_230_" class="st8" d="M650.1,418.6c-0.4,0.4-0.8,0.9-1.2,1.4c11.7,17.3,18.4,37.6,18.5,59.4c0,18.9-5.1,36.7-14,52.4
	l5.7,0c10.1-14.8,16-32.3,16-51C675.1,457,665.7,435.3,650.1,418.6z"/>
<path id="XMLID_227_" class="st5" d="M663.4,436.6c-3.7-6.5-8.1-12.5-13.2-18.1c-5.1,5.5-9.5,11.6-13.2,18.1L663.4,436.6z"/>
<path id="XMLID_219_" class="st0" d="M641.4,531.7c-10.2-14.8-16.1-32.3-16.1-51c0-23.7,9.3-45.4,24.8-62.1
	c15.5,16.7,24.9,38.4,25,62.1c0,18.8-5.9,36.2-16,51L641.4,531.7z"/>
<line id="XMLID_210_" class="st12" x1="633.8" y1="518.5" x2="666.7" y2="518.5"/>
<path id="XMLID_228_" class="st23" d="M463.8,326.4c0,0,6.8-10.7,29.9-28.7c-10.7,14.5-12.8,23.6-13.5,24.3
	C473.4,323.3,463.8,326.4,463.8,326.4z"/>
</svg>
