<?xml version="1.0" standalone="no"?>
<!DOCTYPE svg PUBLIC "-//W3C//DTD SVG 20010904//EN"
 "http://www.w3.org/TR/2001/REC-SVG-20010904/DTD/svg10.dtd">
<svg version="1.0" xmlns="http://www.w3.org/2000/svg"
 width="531.000000pt" height="531.000000pt" viewBox="0 0 531.000000 531.000000"
 preserveAspectRatio="xMidYMid meet">
<metadata>
Created by potrace 1.11, written by Peter Selinger 2001-2013
</metadata>
<g transform="translate(0.000000,531.000000) scale(0.100000,-0.100000)"
fill="#000000" stroke="none">
<path d="M2605 5286 c-191 -136 -388 -337 -482 -491 -83 -136 -158 -292 -192
-398 -11 -32 -42 -60 -214 -194 -111 -86 -204 -159 -207 -162 -3 -3 -23 -19
-45 -36 -22 -16 -42 -31 -45 -35 -14 -15 -144 -110 -151 -110 -5 0 -17 17 -28
38 -23 46 -104 150 -129 168 -24 17 -38 6 -109 -88 -85 -111 -151 -265 -173
-403 -34 -207 7 -432 108 -605 24 -41 49 -78 55 -82 7 -4 56 -7 110 -6 115 1
109 -4 183 152 43 92 46 95 92 111 26 9 54 21 63 25 97 50 289 45 400 -11 20
-10 40 -15 45 -11 4 4 0 -6 -10 -21 -17 -28 -26 -39 -74 -95 -12 -15 -26 -32
-30 -37 -4 -6 -27 -35 -53 -65 -94 -114 -91 -105 -89 -248 1 -70 3 -183 5
-252 2 -69 6 -269 10 -445 5 -286 8 -323 24 -345 23 -32 59 -45 92 -32 15 6
63 57 110 119 109 140 195 231 278 292 64 47 130 86 135 79 1 -2 30 -50 64
-107 l62 -104 -27 -66 c-35 -87 -50 -155 -46 -216 2 -39 -3 -58 -26 -95 -119
-193 -145 -455 -77 -779 33 -154 131 -382 227 -525 55 -83 162 -196 185 -196
42 0 187 178 260 320 86 165 154 360 171 490 17 131 19 172 16 263 -2 56 -4
109 -4 117 0 23 -20 111 -34 155 -20 60 -36 95 -71 151 -26 41 -31 60 -29 99
3 68 -12 139 -46 219 -24 59 -27 72 -15 85 7 9 32 50 56 91 24 41 44 77 46 79
6 7 135 -91 187 -142 54 -53 139 -150 166 -190 8 -12 17 -24 21 -27 3 -3 23
-28 44 -57 41 -55 76 -70 120 -53 51 19 49 0 61 526 3 159 8 372 10 473 4 165
2 187 -14 220 -11 20 -28 45 -38 56 -10 11 -43 52 -73 90 -30 39 -62 78 -71
88 -13 14 -15 26 -8 55 5 20 9 40 9 44 0 12 105 39 167 43 76 6 164 -14 297
-66 l108 -42 24 -54 c14 -30 40 -79 59 -108 l34 -53 101 0 101 1 24 31 c21 29
86 148 92 171 1 6 14 48 29 95 21 67 27 110 30 205 3 120 -2 170 -30 290 -24
107 -146 319 -224 389 -20 18 -21 17 -54 -15 -39 -39 -92 -112 -132 -182 l-27
-47 -37 27 c-20 15 -39 30 -42 33 -6 6 -128 102 -184 145 -42 32 -79 61 -248
193 -59 45 -110 91 -113 102 -3 10 -8 27 -10 37 -7 30 -31 92 -38 99 -4 4 -7
13 -7 20 0 20 -77 178 -132 271 -85 144 -246 330 -389 448 -38 32 -153 110
-164 111 -5 1 -23 -8 -40 -20z"/>
</g>
</svg>
